HIERARCHY
ROOT Hips
{
	OFFSET 0.000000 100.481300 0.000000
	CHANNELS 6 Xposition Yposition Zposition Xrotation Yrotation Zrotation
	JOINT Spine
	{
		OFFSET -0.279200 12.230698 -2.892100
		CHANNELS 3 Xrotation Yrotation Zrotation
		JOINT Spine1
		{
			OFFSET -0.325700 14.269203 -3.374200
			CHANNELS 3 Xrotation Yrotation Zrotation
			JOINT Spine2
			{
				OFFSET -0.372300 16.307602 -0.352600
				CHANNELS 3 Xrotation Yrotation Zrotation
				JOINT Neck
				{
					OFFSET -0.418800 17.814194 8.416900
					CHANNELS 3 Xrotation Yrotation Zrotation
					JOINT Head
					{
						OFFSET 0.000000 7.031097 3.806800
						CHANNELS 3 Xrotation Yrotation Zrotation
						JOINT HeadTop_End
						{
							OFFSET 0.000000 24.646606 12.978600
							CHANNELS 3 Xrotation Yrotation Zrotation
							End Site
							{
								OFFSET 0.000000 27.854965 0.000000
							}
						}
					}
				}
				JOINT LeftShoulder
				{
					OFFSET 16.952999 14.495407 -7.737500
					CHANNELS 3 Xrotation Yrotation Zrotation
					JOINT LeftArm
					{
						OFFSET 9.308998 -2.777710 0.208600
						CHANNELS 3 Xrotation Yrotation Zrotation
						JOINT LeftForeArm
						{
							OFFSET 29.972298 0.000000 0.000000
							CHANNELS 3 Xrotation Yrotation Zrotation
							JOINT LeftHand
							{
								OFFSET 26.026505 0.000000 0.000000
								CHANNELS 3 Xrotation Yrotation Zrotation
								JOINT LeftHandThumb1
								{
									OFFSET 12.240501 -7.147949 9.207150
									CHANNELS 3 Xrotation Yrotation Zrotation
									JOINT LeftHandThumb2
									{
										OFFSET 4.138618 -2.389435 2.389433
										CHANNELS 3 Xrotation Yrotation Zrotation
										JOINT LeftHandThumb3
										{
											OFFSET 2.726913 -1.574387 1.574386
											CHANNELS 3 Xrotation Yrotation Zrotation
											JOINT LeftHandThumb4
											{
												OFFSET 3.941010 -2.275345 2.275342
												CHANNELS 3 Xrotation Yrotation Zrotation
												End Site
												{
													OFFSET -0.005798 5.087799 0.009903
												}
											}
										}
									}
								}
								JOINT LeftHandIndex1
								{
									OFFSET 24.424698 -1.985611 5.953459
									CHANNELS 3 Xrotation Yrotation Zrotation
									JOINT LeftHandIndex2
									{
										OFFSET 6.426697 0.000000 0.000000
										CHANNELS 3 Xrotation Yrotation Zrotation
										JOINT LeftHandIndex3
										{
											OFFSET 5.337898 0.000000 0.000000
											CHANNELS 3 Xrotation Yrotation Zrotation
											JOINT LeftHandIndex4
											{
												OFFSET 4.409401 0.000000 0.000000
												CHANNELS 3 Xrotation Yrotation Zrotation
												End Site
												{
													OFFSET 0.000000 4.409363 0.014373
												}
											}
										}
									}
								}
								JOINT LeftHandMiddle1
								{
									OFFSET 23.810104 0.000000 0.000000
									CHANNELS 3 Xrotation Yrotation Zrotation
									JOINT LeftHandMiddle2
									{
										OFFSET 7.176498 0.000000 0.000000
										CHANNELS 3 Xrotation Yrotation Zrotation
										JOINT LeftHandMiddle3
										{
											OFFSET 6.774902 0.000000 0.000000
											CHANNELS 3 Xrotation Yrotation Zrotation
											JOINT LeftHandMiddle4
											{
												OFFSET 5.403328 0.000000 0.000000
												CHANNELS 3 Xrotation Yrotation Zrotation
												End Site
												{
													OFFSET -0.027702 5.403244 0.017414
												}
											}
										}
									}
								}
								JOINT LeftHandRing1
								{
									OFFSET 22.908401 -0.839279 -6.020567
									CHANNELS 3 Xrotation Yrotation Zrotation
									JOINT LeftHandRing2
									{
										OFFSET 6.337502 0.000000 0.000000
										CHANNELS 3 Xrotation Yrotation Zrotation
										JOINT LeftHandRing3
										{
											OFFSET 5.779297 0.000000 0.000000
											CHANNELS 3 Xrotation Yrotation Zrotation
											JOINT LeftHandRing4
											{
												OFFSET 4.965698 0.000000 0.000000
												CHANNELS 3 Xrotation Yrotation Zrotation
												End Site
												{
													OFFSET 0.000000 4.965668 0.016186
												}
											}
										}
									}
								}
								JOINT LeftHandPinky1
								{
									OFFSET 20.037003 -1.530319 -10.950146
									CHANNELS 3 Xrotation Yrotation Zrotation
									JOINT LeftHandPinky2
									{
										OFFSET 5.254700 0.000000 0.000000
										CHANNELS 3 Xrotation Yrotation Zrotation
										JOINT LeftHandPinky3
										{
											OFFSET 4.810204 0.000000 0.000000
											CHANNELS 3 Xrotation Yrotation Zrotation
											JOINT LeftHandPinky4
											{
												OFFSET 3.647202 0.000000 0.000000
												CHANNELS 3 Xrotation Yrotation Zrotation
												End Site
												{
													OFFSET 0.000000 3.647186 0.011889
												}
											}
										}
									}
								}
							}
						}
					}
				}
				JOINT RightShoulder
				{
					OFFSET -15.141001 14.495407 -7.737500
					CHANNELS 3 Xrotation Yrotation Zrotation
					JOINT RightArm
					{
						OFFSET -9.308998 -2.777710 0.208500
						CHANNELS 3 Xrotation Yrotation Zrotation
						JOINT RightForeArm
						{
							OFFSET -29.972300 0.000000 0.000000
							CHANNELS 3 Xrotation Yrotation Zrotation
							JOINT RightHand
							{
								OFFSET -26.026505 0.000000 0.000000
								CHANNELS 3 Xrotation Yrotation Zrotation
								JOINT RightHandThumb1
								{
									OFFSET -12.240601 -7.148026 9.207092
									CHANNELS 3 Xrotation Yrotation Zrotation
									JOINT RightHandThumb2
									{
										OFFSET -4.138618 -2.389435 2.389433
										CHANNELS 3 Xrotation Yrotation Zrotation
										JOINT RightHandThumb3
										{
											OFFSET -2.726974 -1.574417 1.574421
											CHANNELS 3 Xrotation Yrotation Zrotation
											JOINT RightHandThumb4
											{
												OFFSET -3.941010 -2.275345 2.275343
												CHANNELS 3 Xrotation Yrotation Zrotation
												End Site
												{
													OFFSET 0.005814 5.087799 0.009927
												}
											}
										}
									}
								}
								JOINT RightHandIndex1
								{
									OFFSET -24.424698 -1.985657 5.953444
									CHANNELS 3 Xrotation Yrotation Zrotation
									JOINT RightHandIndex2
									{
										OFFSET -6.426697 0.000000 0.000000
										CHANNELS 3 Xrotation Yrotation Zrotation
										JOINT RightHandIndex3
										{
											OFFSET -5.337898 0.000000 0.000000
											CHANNELS 3 Xrotation Yrotation Zrotation
											JOINT RightHandIndex4
											{
												OFFSET -4.409401 0.000000 0.000000
												CHANNELS 3 Xrotation Yrotation Zrotation
												End Site
												{
													OFFSET 0.000000 4.409363 0.014408
												}
											}
										}
									}
								}
								JOINT RightHandMiddle1
								{
									OFFSET -23.810097 0.000000 0.000000
									CHANNELS 3 Xrotation Yrotation Zrotation
									JOINT RightHandMiddle2
									{
										OFFSET -7.176498 0.000000 0.000000
										CHANNELS 3 Xrotation Yrotation Zrotation
										JOINT RightHandMiddle3
										{
											OFFSET -6.774902 0.000000 0.000000
											CHANNELS 3 Xrotation Yrotation Zrotation
											JOINT RightHandMiddle4
											{
												OFFSET -5.403328 0.000000 0.000000
												CHANNELS 3 Xrotation Yrotation Zrotation
												End Site
												{
													OFFSET 0.027702 5.403244 0.017457
												}
											}
										}
									}
								}
								JOINT RightHandRing1
								{
									OFFSET -22.908302 -0.839325 -6.020576
									CHANNELS 3 Xrotation Yrotation Zrotation
									JOINT RightHandRing2
									{
										OFFSET -6.337502 0.000000 0.000000
										CHANNELS 3 Xrotation Yrotation Zrotation
										JOINT RightHandRing3
										{
											OFFSET -5.779297 0.000000 0.000000
											CHANNELS 3 Xrotation Yrotation Zrotation
											JOINT RightHandRing4
											{
												OFFSET -4.965698 0.000000 0.000000
												CHANNELS 3 Xrotation Yrotation Zrotation
												End Site
												{
													OFFSET 0.000000 4.965668 0.016226
												}
											}
										}
									}
								}
								JOINT RightHandPinky1
								{
									OFFSET -20.037003 -1.530334 -10.950259
									CHANNELS 3 Xrotation Yrotation Zrotation
									JOINT RightHandPinky2
									{
										OFFSET -5.254700 0.000000 0.000000
										CHANNELS 3 Xrotation Yrotation Zrotation
										JOINT RightHandPinky3
										{
											OFFSET -4.810204 0.000000 0.000000
											CHANNELS 3 Xrotation Yrotation Zrotation
											JOINT RightHandPinky4
											{
												OFFSET -3.647202 0.000000 0.000000
												CHANNELS 3 Xrotation Yrotation Zrotation
												End Site
												{
													OFFSET 0.000000 3.647186 0.011917
												}
											}
										}
									}
								}
							}
						}
					}
				}
			}
		}
	}
	JOINT LeftUpLeg
	{
		OFFSET 15.427100 -6.655098 0.678600
		CHANNELS 3 Xrotation Yrotation Zrotation
		JOINT LeftLeg
		{
			OFFSET 4.081073 -39.591068 13.024000
			CHANNELS 3 Xrotation Yrotation Zrotation
			JOINT LeftFoot
			{
				OFFSET -4.081074 -37.707932 -15.979700
				CHANNELS 3 Xrotation Yrotation Zrotation
				JOINT LeftToeBase
				{
					OFFSET 5.346399 -15.068900 20.645000
					CHANNELS 3 Xrotation Yrotation Zrotation
					JOINT LeftToe_End
					{
						OFFSET 2.754700 0.931300 11.300900
						CHANNELS 3 Xrotation Yrotation Zrotation
						End Site
						{
							OFFSET 0.000000 11.669021 0.000000
						}
					}
				}
			}
		}
	}
	JOINT RightUpLeg
	{
		OFFSET -15.569500 -6.655098 0.678600
		CHANNELS 3 Xrotation Yrotation Zrotation
		JOINT RightLeg
		{
			OFFSET -4.081825 -39.591045 13.023800
			CHANNELS 3 Xrotation Yrotation Zrotation
			JOINT RightFoot
			{
				OFFSET 4.081824 -37.707954 -15.979600
				CHANNELS 3 Xrotation Yrotation Zrotation
				JOINT RightToeBase
				{
					OFFSET -5.346400 -15.068900 20.645000
					CHANNELS 3 Xrotation Yrotation Zrotation
					JOINT RightToe_End
					{
						OFFSET -2.754700 0.931300 11.300900
						CHANNELS 3 Xrotation Yrotation Zrotation
						End Site
						{
							OFFSET 0.000000 11.669021 0.000000
						}
					}
				}
			}
		}
	}
}
MOTION
Frames: 4
Frame Time: 0.033333
1.063269 97.581581 -0.676769 -3.751558 -5.195149 -3.872138 3.293927 1.526032 2.846201 1.151890 0.339457 1.552798 1.126014 0.361543 1.555886 5.626309 -0.078963 0.454683 -7.563347 1.375722 -0.080565 -0.000000 -0.000000 -0.000000 1.049449 -17.442068 -12.319430 3.916264 -19.989254 -69.765226 -0.000003 -1.459360 -0.000015 -33.230424 -1.364833 -6.186621 -0.663005 2.160312 4.832484 11.853548 25.421621 17.058341 -13.813946 3.537281 9.035991 0.000001 0.000002 0.000003 0.019861 -0.969581 -7.593553 0.267871 1.752891 -17.375728 0.057680 0.820955 -8.037993 -0.000001 0.000000 0.000002 -0.076315 2.665778 -15.696839 0.268783 1.755806 -17.405509 0.300528 1.853975 -18.413350 0.000001 0.000000 0.000001 0.136908 3.641773 -21.133519 0.386622 2.094788 -20.911922 0.283044 1.800631 -17.865005 0.000001 0.000001 -0.000002 0.927724 5.555917 -27.128041 0.268797 1.755848 -17.405876 0.241910 1.667695 -16.505910 0.000000 0.000000 -0.000002 1.203180 15.343658 14.705966 13.158845 27.555124 58.785171 0.000010 6.693739 -0.000000 -20.179102 -0.514086 6.782825 -1.665245 -0.174475 -4.219030 12.710962 -29.825322 -16.130948 -15.549409 -3.559405 -12.707125 -0.000000 0.000001 0.000002 0.038559 1.262289 6.823708 0.213720 -1.396024 17.407038 0.046030 -0.653846 8.053228 -0.000001 -0.000001 -0.000004 -0.136224 -2.205105 14.998875 0.214450 -1.398342 17.436880 0.239775 -1.476534 18.446266 -0.000000 0.000000 0.000005 0.030609 -3.075761 20.451010 0.308441 -1.668285 20.948532 0.225823 -1.434040 17.897093 -0.000000 0.000000 -0.000001 0.748881 -4.885241 26.473771 0.214455 -1.398385 17.437246 0.193012 -1.328179 16.535830 0.000000 -0.000002 0.000002 -10.250212 14.653498 11.505747 12.225502 1.645062 4.068069 0.757378 0.807819 -8.239204 -4.928530 0.000010 0.000001 0.000001 0.000000 0.000000 3.588630 -10.076251 1.696867 6.764183 -8.476210 -2.423818 -5.421633 -3.055753 5.027782 -7.282879 -0.000001 0.000001 -0.000000 -0.000001 -0.000000 
1.064657 97.584206 -0.674406 -3.733742 -5.193953 -3.873837 3.290688 1.521231 2.846045 1.150808 0.337498 1.552182 1.124931 0.359587 1.555279 5.626708 -0.078680 0.455647 -7.560692 1.375786 -0.082368 -0.000000 0.000000 0.000000 1.049522 -17.446477 -12.312575 3.925740 -19.996487 -69.768859 0.000003 -1.456528 -0.000006 -33.227692 -1.358945 -6.186292 -0.663005 2.160312 4.832485 11.853549 25.421619 17.058338 -13.813941 3.537281 9.035989 -0.000000 -0.000001 0.000006 0.019860 -0.969580 -7.593552 0.267871 1.752891 -17.375723 0.057681 0.820955 -8.037992 0.000000 -0.000000 0.000002 -0.076314 2.665779 -15.696839 0.268785 1.755806 -17.405504 0.300527 1.853977 -18.413348 0.000000 0.000000 0.000000 0.136908 3.641773 -21.133519 0.386622 2.094788 -20.911922 0.283041 1.800632 -17.865010 -0.000000 0.000000 -0.000001 0.927724 5.555917 -27.128043 0.268796 1.755847 -17.405882 0.241912 1.667695 -16.505910 -0.000000 0.000000 -0.000000 1.203530 15.347449 14.695476 13.163485 27.556835 58.779392 -0.000005 6.689809 0.000023 -20.170807 -0.514877 6.785047 -1.665246 -0.174475 -4.219030 12.710963 -29.825326 -16.130955 -15.549409 -3.559404 -12.707125 -0.000003 0.000000 -0.000001 0.038556 1.262289 6.823707 0.213715 -1.396024 17.407038 0.046028 -0.653846 8.053231 -0.000002 -0.000001 -0.000000 -0.136225 -2.205105 14.998875 0.214450 -1.398343 17.436884 0.239776 -1.476535 18.446265 -0.000001 -0.000002 -0.000003 0.030608 -3.075761 20.451009 0.308440 -1.668285 20.948542 0.225822 -1.434041 17.897092 -0.000000 -0.000002 -0.000003 0.748882 -4.885241 26.473767 0.214455 -1.398385 17.437241 0.193008 -1.328183 16.535828 -0.000000 0.000001 0.000000 -10.266603 14.640567 11.506991 12.223470 1.649991 4.068662 0.764584 0.807006 -8.240061 -4.933140 0.000000 0.000005 0.000000 0.000001 0.000000 3.576833 -10.073318 1.700134 6.753653 -8.475622 -2.422213 -5.416286 -3.057853 5.024609 -7.277597 -0.000003 -0.000000 -0.000001 -0.000001 -0.000000 
1.067323 97.592247 -0.668099 -3.720652 -5.202434 -3.878727 3.282119 1.508149 2.846386 1.147958 0.332308 1.550545 1.122080 0.354405 1.553668 5.627684 -0.077906 0.458226 -7.554673 1.375926 -0.086808 0.000000 0.000000 -0.000000 1.049769 -17.457767 -12.294534 3.950840 -20.015241 -69.778422 0.000001 -1.449074 0.000003 -33.220555 -1.343313 -6.185968 -0.663006 2.160313 4.832484 11.853549 25.421623 17.058341 -13.813939 3.537280 9.035990 -0.000001 -0.000002 -0.000004 0.019859 -0.969580 -7.593552 0.267870 1.752892 -17.375725 0.057681 0.820956 -8.037989 0.000001 -0.000000 0.000000 -0.076316 2.665779 -15.696837 0.268785 1.755805 -17.405504 0.300528 1.853976 -18.413348 -0.000000 0.000000 -0.000001 0.136908 3.641773 -21.133517 0.386621 2.094788 -20.911918 0.283042 1.800633 -17.865004 -0.000000 0.000000 -0.000002 0.927723 5.555916 -27.128043 0.268798 1.755847 -17.405880 0.241910 1.667695 -16.505910 0.000001 -0.000000 0.000003 1.204536 15.356704 14.668437 13.175528 27.561406 58.764024 0.000002 6.679798 -0.000001 -20.149512 -0.516638 6.790928 -1.665244 -0.174475 -4.219031 12.710961 -29.825322 -16.130952 -15.549414 -3.559403 -12.707132 0.000001 -0.000000 -0.000002 0.038556 1.262289 6.823707 0.213716 -1.396024 17.407039 0.046029 -0.653846 8.053233 0.000000 -0.000000 0.000000 -0.136226 -2.205105 14.998877 0.214449 -1.398342 17.436877 0.239773 -1.476533 18.446263 0.000001 0.000001 0.000002 0.030610 -3.075760 20.451012 0.308440 -1.668283 20.948537 0.225822 -1.434041 17.897095 0.000001 -0.000001 0.000001 0.748882 -4.885241 26.473769 0.214458 -1.398386 17.437241 0.193010 -1.328181 16.535827 -0.000000 -0.000001 0.000003 -10.266356 14.634008 11.510527 12.208238 1.661725 4.067954 0.773542 0.805695 -8.239562 -4.940836 -0.000005 -0.000004 0.000000 0.000000 0.000000 3.583570 -10.069606 1.705076 6.718300 -8.473502 -2.417750 -5.399312 -3.059204 5.024462 -7.269320 -0.000008 -0.000001 0.000001 -0.000003 0.000000 
1.069886 97.599236 -0.659952 -3.710736 -5.214854 -3.880204 3.270112 1.489544 2.841873 1.143936 0.324919 1.548208 1.118056 0.347031 1.551368 5.628957 -0.076760 0.461968 -7.547302 1.376056 -0.092367 -0.000000 0.000000 0.000000 1.050234 -17.473029 -12.269132 3.986564 -20.041095 -69.792041 -0.000019 -1.438741 -0.000012 -33.210429 -1.320882 -6.186381 -0.663004 2.160312 4.832484 11.853548 25.421619 17.058341 -13.813940 3.537279 9.035988 0.000001 0.000003 0.000002 0.019861 -0.969580 -7.593553 0.267871 1.752892 -17.375723 0.057681 0.820955 -8.037993 -0.000000 0.000000 0.000001 -0.076314 2.665778 -15.696837 0.268783 1.755806 -17.405508 0.300528 1.853975 -18.413350 0.000000 -0.000000 -0.000002 0.136909 3.641773 -21.133519 0.386624 2.094788 -20.911925 0.283041 1.800631 -17.865007 0.000000 0.000000 -0.000000 0.927724 5.555917 -27.128041 0.268795 1.755848 -17.405882 0.241911 1.667695 -16.505907 0.000000 0.000000 -0.000001 1.206120 15.368216 14.631532 13.192291 27.568044 58.741847 -0.000009 6.666441 -0.000008 -20.120629 -0.518514 6.799042 -1.665244 -0.174475 -4.219030 12.710960 -29.825326 -16.130948 -15.549411 -3.559404 -12.707120 0.000001 -0.000001 -0.000004 0.038557 1.262289 6.823708 0.213719 -1.396024 17.407039 0.046031 -0.653846 8.053234 -0.000001 -0.000002 -0.000006 -0.136223 -2.205105 14.998875 0.214450 -1.398343 17.436879 0.239772 -1.476535 18.446266 -0.000001 -0.000001 -0.000001 0.030608 -3.075761 20.451012 0.308440 -1.668284 20.948535 0.225825 -1.434043 17.897095 0.000001 -0.000000 0.000001 0.748881 -4.885241 26.473769 0.214457 -1.398386 17.437241 0.193012 -1.328180 16.535828 0.000000 -0.000002 0.000004 -10.258174 14.626881 11.510311 12.193071 1.678767 4.068427 0.779086 0.806031 -8.244055 -4.946455 -0.000011 0.000003 -0.000000 -0.000000 -0.000000 3.588668 -10.072331 1.704260 6.693045 -8.472820 -2.412505 -5.388804 -3.048519 5.020365 -7.263701 0.000025 -0.000000 -0.000000 0.000000 -0.000000 
